<?xml version="1.0" encoding="UTF-8"?>
<svg width="197px" height="65px" viewBox="0 0 197 65" version="1.1" xmlns="http://www.w3.org/2000/svg" xmlns:xlink="http://www.w3.org/1999/xlink">
    <!-- Generator: Sketch 56 (81588) - https://sketch.com -->
    <title>logo-abqm</title>
    <desc>Created with Sketch.</desc>
    <g id="Page-1" stroke="none" stroke-width="1" fill="none" fill-rule="evenodd">
        <g id="Desktop" transform="translate(-50.000000, -46.000000)">
            <g id="logo-abqm" transform="translate(50.000000, 46.000000)">
                <g id="sigla" transform="translate(62.000000, 9.000000)">
                    <path d="M0.761912929,38.514 L75.3007916,38.514" id="path2" stroke="#FFFFFF" stroke-width="1.7589"></path>
                    <path d="M106.080435,38.514 L134.877823,38.514" id="path4" stroke="#FFFFFF" stroke-width="1.7589"></path>
                    <path d="M128.624367,31.2650083 C125.939327,31.2650083 124.2431,31.3118678 122.265831,31.5867769 C122.029314,31.6350248 122.123351,31.0376529 122.265831,31.0376529 C125.89124,30.6690248 126.221438,30.5780826 126.126332,23.6005289 L125.844578,6.66168595 L114.916346,31.5867769 C114.868259,31.7256198 114.490686,31.771438 114.398786,31.5395702 L103.232968,7.9473719 L102.952282,23.6005289 C102.808377,29.7950083 102.856464,30.6690248 107.237731,31.0376529 C107.331768,31.0376529 107.424024,31.6350248 107.190356,31.5867769 C105.777309,31.4045455 104.504248,31.2650083 102.525554,31.2650083 C99.8889578,31.2650083 98.8050396,31.3118678 96.827058,31.5867769 C96.5901847,31.6350248 96.6856464,31.0376529 96.827058,31.0376529 C101.019538,30.5780826 101.253918,30.1199008 101.346887,23.6005289 L101.678509,7.48641322 C101.678509,4.2281157 100.077032,2.71438017 96.4498417,2.3471405 C96.3077177,2.3471405 96.2158179,1.79454545 96.4498417,1.79454545 C98.7583773,2.11839669 100.68934,2.16247934 104.55091,2.16247934 L115.85814,26.4468099 L122.830053,10.3788595 C124.148351,7.35069421 125.419987,4.41104132 126.033364,1.9785124 C129.045752,2.25480992 131.966596,2.11839669 134.181095,1.79454545 C134.465343,1.79454545 134.323575,2.3471405 134.229538,2.3471405 C129.329644,2.76193388 129.425106,2.98894215 129.517361,9.78426446 L129.801609,23.6005289 C129.896003,30.3934215 129.801609,30.6225124 134.746385,31.0376529 C134.842203,31.0376529 134.983259,31.6350248 134.746385,31.5867769 C133.287388,31.4045455 130.554974,31.2650083 128.624367,31.2650083 L128.624367,31.2650083 Z" id="path6" fill="#FFFFFF" fill-rule="nonzero"></path>
                    <path d="M41.9686148,18.2318182 C41.9686148,21.2447107 41.9686148,26.0986612 42.0088654,26.6852727 C42.1349604,28.6033884 42.1349604,29.151124 43.4265435,29.7387769 C44.5521372,30.2483306 50.3193799,30.3278182 51.0698945,30.3278182 C53.3185884,30.3278182 56.9454222,29.1903471 56.9454222,24.7678512 C56.9454222,22.4193223 56.1108443,19.0145455 52.903971,16.9398843 C51.4862929,16.0401818 50.4454749,15.921124 49.4449077,15.8055372 C48.9027704,15.7260496 42.8434433,15.7260496 42.2183113,15.7260496 C42.0505409,15.7260496 41.9682586,15.8055372 41.9682586,16.0013058 L41.9682586,18.2318182 L41.9686148,18.2318182 Z M41.9686148,14.0842314 C41.9686148,14.3567107 42.0508971,14.4344628 42.2589182,14.5132562 C42.5103958,14.5517851 47.2368206,14.6694545 48.7795251,14.6694545 C51.1122823,14.6694545 51.694314,14.5910083 52.5709235,13.6517355 C53.4432586,12.7135041 54.0701715,11.3035537 54.0701715,9.69818182 C54.0701715,6.45029752 52.5278232,2.96603306 48.4461214,2.96603306 C47.9884037,2.96603306 43.1351715,3.00699174 42.4683641,3.16284298 C42.093285,3.24128926 41.968971,3.35757025 41.968971,3.59360331 L41.968971,14.0842314 L41.9686148,14.0842314 Z M38.636715,13.2209752 C38.636715,7.11535537 38.636715,6.01814876 38.5522955,4.76613223 C38.4689446,3.43705785 38.1362533,2.8094876 36.7620317,2.53492562 C36.4293404,2.45682645 35.7190765,2.41656198 35.345066,2.41656198 C35.1783641,2.41656198 35.0109499,2.33846281 35.0109499,2.18330579 C35.0109499,1.94935537 35.2196834,1.86917355 35.6784697,1.86917355 C37.5535092,1.86917355 40.1769261,1.98719008 40.3853034,1.98719008 C41.3848021,1.98719008 46.9885488,1.86917355 48.9031266,1.86917355 C55.7364776,1.86917355 57.2353694,5.78419835 57.2353694,7.7422314 C57.2353694,10.9505455 55.2776913,12.8686612 53.3193008,14.7864298 C56.4022164,15.6875207 60.5266623,18.4661157 60.5266623,23.0458512 C60.5266623,27.2347438 57.0280607,31.5787934 49.9036939,31.5787934 C49.4456201,31.5787934 44.134314,31.5010413 42.926438,31.4607769 C41.718562,31.3826777 40.5527177,31.3431074 40.3853034,31.3431074 C40.3030211,31.3431074 39.5934697,31.3431074 38.7175726,31.3830248 C37.8862005,31.3830248 36.9280211,31.4607769 36.3046702,31.4607769 C35.8448153,31.4607769 35.6371504,31.3830248 35.6371504,31.1480331 C35.6371504,31.0300165 35.7187203,30.9137355 35.9694855,30.9137355 C36.3449208,30.9137355 36.8439578,30.834595 37.2208179,30.7575372 C38.0529024,30.5999504 38.2609235,29.7384298 38.4279815,28.6033884 C38.6370712,26.9605289 38.6370712,23.8674545 38.6370712,20.1103636 L38.6370712,13.2209752 L38.636715,13.2209752 Z" id="path8" fill="#FFFFFF" fill-rule="nonzero"></path>
                    <path d="M21.7645646,18.580314 C21.996095,18.580314 21.996095,18.4650744 21.9501451,18.3102645 L17.5343272,7.87760331 C17.3038654,7.29932231 17.0687731,7.29932231 16.8379551,7.87760331 L12.7477045,18.3102645 C12.6547361,18.5029091 12.7477045,18.580314 12.8869789,18.580314 L21.7645646,18.580314 Z M16.9302111,3.12535537 C17.4880211,1.85077686 17.6739578,1.61890909 17.953219,1.61890909 C18.2310554,1.61890909 18.4187731,1.81294215 18.9740897,3.0097686 C19.6725989,4.47803306 26.9690106,20.4352562 29.8061478,26.3090083 C31.4795778,29.748843 32.8277968,30.3649587 33.8037863,30.5971736 C34.5033641,30.7894711 35.1993799,30.8290413 35.663153,30.8290413 C35.942058,30.8290413 36.1287071,30.8682645 36.1287071,31.0616033 C36.1287071,31.293124 35.7101715,31.3694876 35.1997361,31.3694876 C34.5037203,31.3694876 31.1080607,31.3694876 27.9018997,31.293124 C27.0167414,31.2542479 26.5059499,31.2542479 26.5059499,31.0223802 C26.5059499,30.8686116 26.6459367,30.7894711 26.8322296,30.7526777 C27.110066,30.6742314 27.3893272,30.327124 27.110066,29.7085785 L22.7872164,20.2033884 C22.6949604,20.0485785 22.6027045,19.972562 22.3690369,19.972562 L12.1204354,20.0194215 C11.888905,20.0194215 11.7492744,20.1353554 11.6548813,20.328 L8.49431398,27.1201983 C8.07613456,28.0865455 7.84317942,29.0133223 7.84317942,29.7085785 C7.84317942,30.4808926 8.82023747,30.8293884 9.61029024,30.8293884 L10.0754881,30.8293884 C10.4017678,30.8293884 10.5399736,30.9074876 10.5399736,31.0619504 C10.5399736,31.2934711 10.2610686,31.3698347 9.84288918,31.3698347 C8.72726913,31.3698347 6.72898417,31.254595 6.21783641,31.254595 C5.70562005,31.254595 3.14952507,31.3698347 0.963878628,31.3698347 C0.359762533,31.3698347 0.0812137203,31.2934711 0.0812137203,31.0619504 C0.0812137203,30.9074876 0.266437995,30.8293884 0.499036939,30.8293884 C0.824248021,30.8293884 1.47502639,30.7898182 1.84832454,30.7526777 C3.9848153,30.5201157 4.91485488,29.0525455 5.75228232,27.1201983 L16.9302111,3.12535537 Z" id="path10" fill="#FFFFFF" fill-rule="nonzero"></path>
                    <path d="M80.9533377,31.8228099 C73.8603166,31.8228099 66.5161741,26.2354215 66.5161741,15.4507934 C66.5161741,6.55755372 72.0515303,1.31171901 79.5442084,1.31171901 C86.6365172,1.31171901 93.9803034,6.85120661 93.9803034,17.6865124 C93.9803034,26.579405 88.3979288,31.8228099 80.9533377,31.8228099 Z M102.330356,38.0426281 C100.871003,38.6719339 99.1103034,39.0159174 96.9994591,39.0159174 C93.1760026,39.0159174 88.297124,36.2959835 84.1726781,32.4073388 C92.4703694,30.4170248 98.0043008,22.8847934 98.0043008,16.0335868 C98.0043008,7.77208264 90.9622164,0.19368595 80.7004354,0.19368595 C69.9862797,0.19368595 62.4903958,9.08553719 62.4903958,17.0533884 C62.4903958,25.2642149 69.3333641,32.7475041 79.4444723,32.9425785 C79.4444723,32.9425785 81.9100923,32.8998843 82.9156464,33.9398182 C84.2307388,35.2997851 92.5932586,43.4849256 102.381649,38.6285455 C102.634908,38.4827603 102.430449,37.9933388 102.330356,38.0426281 L102.330356,38.0426281 Z" id="path12" fill="#008F35" fill-rule="nonzero"></path>
                    <path d="M92.1106069,41.6022149 C92.757467,41.706 93.4143008,41.7466116 94.078971,41.7466116 C98.5510686,41.7466116 100.486662,40.3026446 102.458232,39.2286942 C102.654855,39.121438 102.458232,39.2286942 102.458232,39.2286942 C92.1369657,44.3367273 83.7245778,36.3289587 82.4101979,34.9679504 C81.4042876,33.9300992 78.3723087,33.9703636 78.3723087,33.9703636 C82.6189314,37.738562 86.0231398,39.828843 89.2182586,40.8764132 C89.2186148,40.8760661 91.0751319,41.4373388 92.1106069,41.6022149 L92.1106069,41.6022149 Z" id="path14" fill="#FFCB00" fill-rule="nonzero"></path>
                </g>
                <g id="logo" fill-rule="nonzero">
                    <polygon id="path16" fill="#FFFFFF" points="18.5828777 11.7847364 20.3925904 10.9001455 21.7653777 12.3715091 21.4792021 10.3832182 23.3081596 9.54117273 21.3223936 9.19761818 21.0818351 7.20613636 20.1395585 8.97886364 18.1612766 8.59347273 19.5654255 10.0311545"></polygon>
                    <polygon id="path20" fill="#FFFFFF" points="13.9135479 12.1658727 15.149484 10.7625818 16.8569149 11.5344273 15.8964628 9.93259091 17.159484 8.55482727 15.3319521 8.96680909 14.4064255 7.34440909 14.2382128 9.20364545 12.3989202 9.57946364 14.1241702 10.3105364"></polygon>
                    <polygon id="path22" fill="#FFFFFF" points="26.2508138 14.0467364 25.4265 12.3715091 23.5750904 12.6721636 24.9232872 11.3755909 24.0654734 9.71773636 25.7222979 10.5899182 27.041984 9.26604545 26.7158936 11.1029455 28.3923191 11.9439273 26.5355638 12.2013273"></polygon>
                    <path d="M10.3433032,26.0271818 C9.27771809,25.4127545 9.38035638,24.5427 9.27771809,24.1271727 C9.17401064,23.7151909 8.86609574,21.6095455 8.86609574,20.9958273 C8.86609574,20.3814 8.31655319,19.6921636 7.93771809,18.8958545 C7.55923936,18.0988364 6.56243617,15.9999273 6.49614894,15.8549182 C6.42522872,15.7109727 5.98081915,15.3486273 5.25843085,15.6741 C4.53639894,15.9995727 3.71244149,15.7474909 3.50538298,15.8549182 C3.29903723,15.9630545 2.54528723,16.2165545 2.20066489,16.2537818 C1.85675532,16.2895909 1.89132447,16.7239091 1.65076596,16.8689182 C1.41056383,17.0146364 0.723101064,16.614 0.723101064,16.614 C0.723101064,16.614 0.379904255,16.4360182 0.311478723,16.2895909 C0.243409574,16.1445818 0.243409574,15.9414273 0.10406383,15.5305091 C-0.099787234,14.9146636 0.277978723,14.8551 0.277978723,14.8551 C0.277978723,14.8551 0.861021277,14.3229273 1.06736702,14.1406909 C1.27335638,13.9605818 2.14435638,12.9387818 2.1650266,12.5615455 C2.20066489,11.9457 2.7491383,11.5844182 2.99219149,11.2951091 C3.11051064,11.1493909 3.3813617,11.0047364 3.47081383,10.7852727 C3.56240426,10.5700636 3.47081383,10.2814636 3.47081383,10.2814636 C3.0944734,9.99215455 3.47081383,8.79591818 3.47081383,8.79591818 L3.60909043,8.79591818 C3.60909043,8.79591818 3.60909043,9.12139091 3.74558511,9.30398182 C3.88457447,9.48515455 4.15792021,10.0999364 4.33076596,9.91947273 C4.50289894,9.73617273 4.81081383,9.95457273 4.81081383,9.95457273 C4.53639894,9.55712727 4.94766489,8.57822727 4.94766489,8.57822727 L5.08665426,8.57822727 L5.08665426,8.68742727 C5.08665426,8.79591818 5.1547234,9.19407273 5.2238617,9.37595455 C5.29228723,9.55712727 5.84254255,10.4615727 5.84254255,10.4615727 C5.84254255,10.4615727 6.37640426,10.7359909 6.58239362,10.9129091 C6.7880266,11.0898273 6.96407979,11.0348727 7.21532979,10.9802727 C7.73172872,10.8707182 11.5425319,13.0820182 13.2952234,15.0944182 C14.2317979,16.1669182 15.0151277,16.1442273 15.4955319,16.1796818 C15.9773617,16.2162 18.0041117,17.1940364 18.0041117,17.1940364 C18.0041117,17.1940364 20.2372074,17.3397545 22.2978138,16.5796091 C24.3587766,15.8187545 25.9735479,15.1678091 28.3784202,16.1080636 C28.3784202,16.1080636 28.92725,16.3254 29.2722287,16.3966636 C29.6161383,16.4707636 30.2676064,16.7235545 30.2676064,16.7235545 C30.2676064,16.7235545 32.1582181,16.4704091 33.3595851,19.1497091 C34.5602394,21.8268818 34.8025798,24.5792182 34.3549628,26.7876818 C34.3549628,26.7876818 34.3549628,26.3154273 34.2530372,26.0633455 C34.1503989,25.8094909 33.6347128,27.7637455 33.4290798,28.0895727 L33.4290798,27.3655909 C33.4290798,27.2567455 32.9112553,28.5597 32.8107553,28.9564364 C32.7077606,29.3553 32.6731915,29.6807727 32.6731915,29.6807727 C32.6731915,29.6807727 32.6389787,28.4877273 32.7761862,28.1622545 C32.9112553,27.8360727 32.4664894,28.7398091 32.4664894,28.5951545 C32.4664894,28.4519182 32.5003457,27.5464091 32.5003457,27.2929091 C32.5003457,27.0383455 32.2255745,27.4379182 32.2601436,25.7378727 C32.2954255,24.0349909 32.569484,22.7692636 32.2954255,21.5737364 C32.018516,20.3810455 32.1240053,20.1984545 32.1240053,20.1984545 C32.1240053,20.1984545 32.0901489,21.2117455 31.9853723,21.4287273 C31.9853723,21.4287273 31.6418191,23.6003182 31.0573511,24.6139636 C30.472883,25.6279636 29.6859894,26.6419636 29.9589787,27.4379182 C30.2326809,28.2342273 30.6467979,29.1383182 30.6467979,29.4283364 C30.6467979,29.7176455 30.7145106,29.7903273 30.8189309,30.0087273 C30.9208564,30.2239364 31.2993351,30.9500455 31.0573511,31.4925 C30.8189309,32.0356636 30.8520745,33.1946727 30.8520745,33.8814273 C30.8520745,34.5688909 30.8859309,36.5231455 30.8859309,36.6685091 C30.8859309,36.8131636 30.8859309,36.9567545 30.7469415,37.0301455 C30.6132979,37.1038909 30.5423777,37.2825818 30.5085213,37.3921364 C30.472883,37.5013364 30.1300426,37.5729545 30.1300426,37.8271636 C30.1300426,38.0792455 30.3371011,38.4075545 30.3371011,38.5153364 C30.3371011,38.6231182 30.0266915,38.8393909 30.0266915,38.8393909 C30.0266915,38.8393909 28.4133457,38.9489455 28.4133457,38.8393909 C28.4133457,38.7301909 28.9971011,37.9338818 28.9971011,37.9338818 C28.9971011,37.9338818 28.9971011,37.6803818 29.238016,37.5726 C29.4767926,37.4644636 29.5805,37.2822273 29.5805,36.8862 C29.5805,36.4862727 29.5124309,36.4125273 29.6499947,36.0165 C29.7872021,35.6183455 29.6859894,32.5040182 29.6859894,32.5040182 L29.5805,32.3604273 C29.5805,32.3604273 28.9636011,34.5306 28.92725,34.9312364 C28.89375,35.3283273 29.032383,35.9080091 28.6531915,36.3409091 C28.274,36.7766455 27.9660851,36.9567545 27.9660851,36.9567545 C27.9660851,36.9567545 27.7943085,37.2116727 27.9318723,37.3921364 C28.0701489,37.5729545 28.2408564,37.8271636 28.1378617,37.9342364 C28.0359362,38.0437909 27.7943085,38.1157636 27.7943085,38.1157636 C27.7943085,38.1157636 26.6606543,38.3334545 26.3181702,38.1884455 C26.3181702,38.1884455 26.5573032,37.5729545 26.6253723,37.4293636 C26.694867,37.2822273 26.7632926,37.0666636 27.0042074,36.8511 C27.2440532,36.6316364 27.4853245,36.6681545 27.4853245,36.3409091 C27.4853245,36.0168545 27.6560319,35.9080091 27.8976596,35.2932273 C28.1378617,34.6763182 28.3784202,32.6508 28.3784202,32.3980091 C28.3784202,32.1430909 27.8976596,30.9500455 27.8976596,30.0434727 L27.8976596,28.4515636 C27.8976596,28.4515636 27.5188245,28.0534091 27.2779096,27.0738 C27.0409149,26.0984455 26.0761862,24.9401455 25.8370532,24.7221 C25.5975638,24.5054727 25.4585745,24.5788636 25.184516,24.6139636 C24.9093883,24.6508364 24.9093883,24.5054727 24.5979096,24.3615273 C24.2903511,24.2168727 23.0187766,24.9401455 22.4703032,25.3397182 C21.9286011,25.7311364 19.4624309,26.5409182 16.7346755,26.8440545 C16.687633,26.8490182 16.6416596,26.8532727 16.5939043,26.8578818 C13.811266,27.1468364 15.2902553,27.0734455 15.151266,27.0734455 C15.151266,27.0734455 15.42675,28.1257364 15.5297447,29.0656364 C15.6327394,30.0080182 15.8401543,30.9106909 15.8401543,31.4549182 C15.8401543,31.9998545 15.8052287,32.9397545 15.9067979,33.1202182 C16.0119309,33.3017455 16.3932606,35.0028545 16.3932606,35.0028545 C16.3932606,35.0028545 16.9367447,35.5460182 16.8009628,35.763 C16.6630426,35.9785636 16.3964681,36.0165 16.3932606,36.3792 C16.3879149,36.7401273 16.259617,37.3563273 16.3932606,37.4644636 C16.5269043,37.5729545 16.5689574,37.6800273 16.3932606,37.7179636 C16.2168511,37.7534182 15.9773617,37.9338818 15.9773617,37.9338818 C15.9773617,37.9338818 15.6676649,38.3331 14.6384309,38.1154091 C14.6384309,38.1154091 14.6384309,37.8268091 14.9132021,37.5364364 C15.1872606,37.2481909 15.1872606,37.2481909 15.3925372,37.1397 C15.5985266,37.0294364 15.4955319,36.8511 15.6327394,36.4862727 C15.7706596,36.1246364 15.8401543,35.9076545 15.8401543,35.9076545 C15.8401543,35.9076545 15.5646702,35.6545091 15.5646702,35.3279727 C15.5646702,35.0028545 15.0151277,33.3375545 14.9463457,33.1563818 C14.8775638,32.9755636 14.3964468,32.2512273 14.1908138,31.4191091 C13.9841117,30.5862818 13.4687819,28.9936636 13.2617234,28.5246 C13.0571596,28.0530545 13.0225904,28.2342273 13.0225904,28.5944455 C13.0225904,28.9564364 12.6216596,30.0803455 12.839766,30.6954818 C13.0571596,31.3106182 13.0343511,32.5040182 12.839766,32.7571636 C12.6441117,33.0124364 12.6441117,33.5917636 12.6441117,34.0246636 C12.6441117,34.4593364 12.7613617,35.5460182 12.839766,35.7995182 C12.9192394,36.0519545 13.1027766,36.2696455 12.839766,36.4862727 C12.5749734,36.7043182 12.4737606,36.8507455 12.3682713,36.9564 C12.2667021,37.0663091 12.1287819,37.6800273 12.1287819,37.7899364 C12.1287819,37.8963 12.4384787,38.0785364 12.3361968,38.1519273 C12.2317766,38.2239 11.9242181,38.6227636 11.9242181,38.6227636 C11.9242181,38.6227636 10.8917766,38.6947364 10.3098032,38.5858909 L10.3098032,38.4412364 C10.3098032,38.4412364 10.8639787,37.5726 11.1526489,37.3914273 C11.4413191,37.2109636 11.3725372,37.0294364 11.5108138,36.8124545 C11.6469521,36.5976 11.8183723,36.0516 11.8183723,35.9073 C11.8183723,35.7626455 11.8183723,35.4006545 11.8532979,35.2925182 C11.8892926,35.1826091 11.7517287,33.2655818 11.7517287,33.2655818 C11.7517287,33.2655818 11.3725372,32.1423818 11.4074628,31.3102636 C11.4413191,30.4781455 11.4627021,29.8513091 11.1526489,29.3904 C10.0339628,27.7300636 10.3433032,26.0271818 10.3433032,26.0271818 L10.3433032,26.0271818 Z" id="path24" fill="#FFFFFF"></path>
                    <path d="M32.7059787,13.1656909 C35.7038723,16.2895909 37.0142926,19.9350273 37.0142926,24.5951727 C37.0142926,29.5861091 34.9005851,34.0821 31.5177979,37.2545727 C31.5106702,37.2637909 31.502117,37.2723 31.4932074,37.2797455 C42.0282447,32.3827636 51.4649096,22.1867455 51.4649096,22.1867455 C45.2406809,21.3868909 38.0695426,17.5248273 32.7059787,13.1656909 Z" id="path26" fill="#FFCB00"></path>
                    <path d="M63.0459309,0.0304909091 C63.5933351,4.61653636 64.2979043,10.1474455 61.6396436,18.3200727 L66.6432606,4.68921818 C67.65325,1.7979 64.2195,0.242154545 63.0459309,0.0304909091 Z" id="path28" fill="#00722C"></path>
                    <path d="M62.6963191,5.41142727 C54.559383,11.5198909 30.5498617,2.68639091 20.4877447,3.44299091 C11.1822287,4.14215455 7.44662234,9.7617 7.44662234,9.7617 C7.45838298,9.75248182 7.46978723,9.74539091 7.48047872,9.73652727 C10.6066702,7.38979091 14.4976596,5.99678182 18.7150957,5.99678182 C23.5023883,5.99678182 27.3627287,7.7064 31.1713936,10.7367 C32.7968564,12.2165727 34.505,13.1373273 36.0948245,14.0903455 C49.302734,22.0126636 54.9271702,21.0057545 54.9271702,21.0057545 C45.0061809,33.3836455 31.7016915,38.1427091 31.7016915,38.1427091 C44.2880691,40.2402 53.1138936,37.0822636 53.1149628,37.0822636 L61.6392872,18.3200727 L61.6606702,18.2739818 C62.7312447,14.0999182 63.2729468,8.38996364 62.6963191,5.41142727 L62.6963191,5.41142727 Z" id="path30" fill="#009035"></path>
                </g>
                <g id="bottom" transform="translate(62.000000, 52.000000)" fill="#FFFFFF" fill-rule="nonzero">
                    <path d="M6.47928191,9.84316667 C7.82138298,9.84316667 10.5953457,9.17459524 10.5953457,5.43369048 C10.5953457,2.34804762 8.41847074,0.689928571 6.06207447,0.689928571 C3.57139628,0.689928571 1.70724734,2.10383333 1.70724734,4.9192619 C1.70724734,7.91452381 3.79507979,9.84316667 6.47928191,9.84316667 L6.47928191,9.84316667 Z M8.46263298,9.89454762 C7.92586436,10.1387619 6.91192819,10.3315952 6.12131649,10.3315952 C1.99053191,10.3315952 0.290465426,7.59292857 0.290465426,5.2792381 C0.290465426,3.19645238 2.05013298,0.252880952 6.16583777,0.252880952 C9.52144947,0.252880952 12.0264894,2.09083333 12.0264894,5.07402381 C12.0264894,7.33633333 10.3713032,8.84030952 9.38716755,9.39311905 L12.4440559,10.7559524 C15.7099069,12.2085476 17.9765426,12.272619 18.7222739,12.272619 C19.4676463,12.272619 20.6309441,12.1311667 21.6599601,11.7715 C21.7493617,11.7455 21.8240426,11.7195 21.8689229,11.7195 C21.9285239,11.7195 21.9583245,11.7581905 21.9583245,11.796881 C21.9583245,11.8482619 21.9285239,11.8869524 21.8391223,11.9256429 C20.9889096,12.2599286 19.3186436,12.8130476 17.111609,12.8130476 C15.3074202,12.8130476 13.3833112,12.2472381 10.9676729,11.089619 L8.46263298,9.89454762 Z" id="path36"></path>
                    <path d="M14.2464495,5.04802381 C14.2464495,3.35121429 14.2464495,3.04261905 14.2166489,2.69502381 C14.1868484,2.34804762 14.1125266,2.14252381 13.6798803,2.09083333 C13.575758,2.07783333 13.3520745,2.06514286 13.2325133,2.06514286 C13.187992,2.06514286 13.128391,2.0137619 13.128391,1.97538095 C13.128391,1.911 13.187992,1.88530952 13.3369947,1.88530952 C13.9333644,1.88530952 14.723617,1.911 14.8431782,1.911 C14.9623803,1.911 15.7824335,1.88530952 16.1701995,1.88530952 C16.3192021,1.88530952 16.393883,1.911 16.393883,1.97538095 C16.393883,2.0137619 16.3339229,2.06514286 16.2746809,2.06514286 C16.1849202,2.06514286 16.1105984,2.06514286 15.946516,2.09083333 C15.6036303,2.14252381 15.5289495,2.33535714 15.4991489,2.69502381 C15.4693484,3.04261905 15.4693484,3.35090476 15.4693484,5.04802381 L15.4693484,6.57769048 C15.4693484,8.1587381 15.8714761,8.81461905 16.4387633,9.25166667 C17.0796543,9.75309524 17.6465824,9.84316667 18.3919548,9.84316667 C19.1972872,9.84316667 19.9724601,9.53457143 20.4198271,9.07183333 C21.0309176,8.44195238 21.1655585,7.54247619 21.1655585,6.42354762 L21.1655585,5.04802381 C21.1655585,3.35121429 21.1501197,3.04261905 21.135758,2.69502381 C21.1206782,2.34804762 21.0459973,2.14252381 20.6137101,2.09052381 C20.5095878,2.07783333 20.2859043,2.06514286 20.1663431,2.06514286 C20.106742,2.06514286 20.0622207,2.0137619 20.0622207,1.97538095 C20.0622207,1.911 20.1218218,1.88530952 20.2708245,1.88530952 C20.8521144,1.88530952 21.6132846,1.911 21.6876064,1.911 C21.777008,1.911 22.4031782,1.88530952 22.7909441,1.88530952 C22.9399468,1.88530952 22.9995479,1.911 22.9995479,1.97538095 C22.9995479,2.0137619 22.9550266,2.06514286 22.8954255,2.06514286 C22.8056649,2.06514286 22.7313431,2.06514286 22.5672606,2.09052381 C22.2092952,2.15521429 22.1346144,2.33535714 22.1048138,2.69502381 C22.0750133,3.04261905 22.0900931,3.35090476 22.0900931,5.04802381 L22.0900931,6.21771429 C22.0900931,7.40071429 21.9112899,8.72485714 20.8668351,9.49588095 C19.912859,10.2031429 18.8989229,10.2929048 18.123391,10.2929048 C17.6907447,10.2929048 16.318484,10.2672143 15.3939495,9.52188095 C14.7526995,9.00745238 14.2457314,8.24911905 14.2457314,6.6547619 L14.2457314,5.04802381 L14.2464495,5.04802381 Z" id="path38"></path>
                    <path d="M28.6059973,6.6547619 C28.6655984,6.6547619 28.6655984,6.62907143 28.6505186,6.57769048 L27.3532979,3.58211905 C27.278617,3.41497619 27.2042952,3.41497619 27.1296144,3.58211905 L25.9067154,6.57769048 C25.8919947,6.62907143 25.9067154,6.6547619 25.9515957,6.6547619 L28.6059973,6.6547619 Z M27.1446941,2.10383333 C27.3084176,1.74416667 27.3683777,1.68009524 27.4577793,1.68009524 C27.5917021,1.68009524 27.6365824,1.83392857 27.7708644,2.07814286 C28.0092686,2.54088095 30.1121809,7.05342857 30.9178723,8.71216667 C31.3946809,9.68902381 31.7526463,9.83047619 32.0359309,9.90785714 C32.2298138,9.9592381 32.4236968,9.97161905 32.5576197,9.97161905 C32.6323005,9.97161905 32.7217021,9.99730952 32.7217021,10.0616905 C32.7217021,10.1260714 32.5726995,10.1517619 32.4236968,10.1517619 C32.2298138,10.1517619 31.260758,10.1517619 30.3509441,10.1260714 C30.0974601,10.1130714 29.8884973,10.1130714 29.8884973,10.0486905 C29.8884973,9.99730952 29.9182979,9.99730952 29.9778989,9.97161905 C30.0525798,9.94592857 30.1868617,9.85585714 30.0974601,9.67602381 L28.9194415,7.16888095 C28.889641,7.1175 28.8745612,7.10480952 28.7998803,7.10480952 L25.7727926,7.10480952 C25.7131915,7.10480952 25.6683112,7.1305 25.6385106,7.19457143 L24.8927793,8.94338095 C24.7735771,9.21297619 24.6988963,9.48319048 24.6988963,9.67571429 C24.6988963,9.8942381 24.9225798,9.97130952 25.1462633,9.97130952 L25.2658245,9.97130952 C25.3699468,9.97130952 25.3997473,10.01 25.3997473,10.061381 C25.3997473,10.1257619 25.3254255,10.1514524 25.2058644,10.1514524 C24.8927793,10.1514524 24.1772074,10.1127619 24.0278457,10.1127619 C23.8939229,10.1127619 23.2375931,10.1514524 22.7008245,10.1514524 C22.536742,10.1514524 22.4473404,10.1257619 22.4473404,10.061381 C22.4473404,10.01 22.5069415,9.97130952 22.5665426,9.97130952 C22.6563032,9.97130952 22.8501862,9.95892857 22.9543085,9.94561905 C23.5510372,9.88154762 23.8045213,9.49588095 24.0580053,8.94338095 L27.1446941,2.10383333 Z" id="path40"></path>
                    <path d="M35.1359043,5.9735 C35.1359043,6.03788095 35.1657048,6.0762619 35.2253059,6.11495238 C35.4191888,6.20471429 36.0902394,6.28209524 36.6715293,6.28209524 C36.9849734,6.28209524 37.3425798,6.26909524 37.6560239,6.0892619 C38.1030319,5.83204762 38.4462766,5.25354762 38.4462766,4.41814286 C38.4462766,3.05530952 37.5817021,2.27097619 36.179641,2.27097619 C35.791875,2.27097619 35.3743085,2.30966667 35.2400266,2.33535714 C35.1804255,2.36104762 35.1359043,2.39942857 35.1359043,2.46380952 L35.1359043,5.9735 L35.1359043,5.9735 Z M34.0024069,5.04802381 C34.0024069,3.35121429 34.0024069,3.04230952 33.9726064,2.69502381 C33.9428059,2.32235714 33.868484,2.14252381 33.4358378,2.09083333 C33.3313564,2.07814286 33.1076729,2.06514286 32.9888298,2.06514286 C32.9439495,2.06514286 32.8847074,2.0137619 32.8847074,1.97538095 C32.8847074,1.911 32.9439495,1.88530952 33.0929521,1.88530952 C33.6893218,1.88530952 34.5693351,1.911 34.6436569,1.911 C34.7779388,1.911 35.8812766,1.88530952 36.2841223,1.88530952 C37.1185372,1.88530952 38.0434309,1.94969048 38.7299202,2.36104762 C39.0577261,2.56657143 39.639375,3.09369048 39.639375,3.85202381 C39.639375,4.66204762 39.251609,5.44607143 38.0290691,6.34616667 C39.1026064,7.50285714 40.0120612,8.49333333 40.7732314,9.17459524 C41.4740824,9.79178571 41.9063697,9.89454762 42.2348936,9.9332381 C42.4883777,9.97161905 42.6223005,9.97161905 42.6966223,9.97161905 C42.7716622,9.97161905 42.8161835,10.023 42.8161835,10.0616905 C42.8161835,10.1260714 42.7415027,10.1517619 42.5027394,10.1517619 L41.6826862,10.1517619 C40.9369548,10.1517619 40.6091489,10.087381 40.280984,9.9332381 C39.7144149,9.67602381 39.2372473,9.14921429 38.491516,8.3265 C37.9403856,7.73469048 37.3583777,7.02742857 37.0750931,6.73214286 C37.015492,6.6807619 36.9856915,6.66807143 36.8959309,6.66807143 L35.2260239,6.64238095 C35.1664229,6.64238095 35.1366223,6.66807143 35.1366223,6.73214286 L35.1366223,6.98935714 C35.1366223,8.04359524 35.1366223,8.89230952 35.1962234,9.34204762 C35.2407447,9.66333333 35.3154255,9.86916667 35.7179122,9.92054762 C35.8970745,9.9462381 36.180359,9.97192857 36.2995612,9.97192857 C36.3889628,9.97192857 36.4040426,10.0233095 36.4040426,10.062 C36.4040426,10.113381 36.3444415,10.1520714 36.1950798,10.1520714 C35.479508,10.1520714 34.644375,10.113381 34.5847739,10.113381 C34.5700532,10.113381 33.6900399,10.1520714 33.2875532,10.1520714 C33.1532713,10.1520714 33.0789495,10.126381 33.0789495,10.062 C33.0789495,10.0233095 33.108391,9.97192857 33.1834309,9.97192857 C33.302633,9.97192857 33.4667154,9.9462381 33.5855585,9.92054762 C33.8394016,9.86916667 33.8692021,9.66333333 33.9288032,9.34204762 C34.003125,8.89261905 34.003125,8.03121429 34.003125,6.97635714 L34.003125,5.04802381 L34.0024069,5.04802381 Z" id="path42"></path>
                    <path d="M45.7524335,6.97604762 C45.7524335,8.03028571 45.7524335,8.89138095 45.8120346,9.34204762 C45.8569149,9.66302381 45.916516,9.86916667 46.3193617,9.92054762 C46.4981649,9.94592857 46.7965293,9.97192857 46.9157314,9.97192857 C47.005133,9.97192857 47.0202128,10.023 47.0202128,10.0616905 C47.0202128,10.113381 46.9602527,10.1520714 46.81125,10.1520714 C46.0956782,10.1520714 45.2605452,10.113381 45.1858644,10.113381 C45.1262633,10.113381 44.2168085,10.1520714 43.8290426,10.1520714 C43.6796809,10.1520714 43.6200798,10.1260714 43.6200798,10.0616905 C43.6200798,10.023 43.6498803,9.98461905 43.7245612,9.98461905 C43.8437633,9.98461905 43.993484,9.9592381 44.1123271,9.9332381 C44.3805319,9.88185714 44.4552128,9.66302381 44.5000931,9.34204762 C44.5596941,8.89169048 44.5596941,8.03059524 44.5596941,6.97604762 L44.5596941,2.3867381 L42.6657447,2.41242857 C41.8456915,2.42511905 41.5326064,2.5025 41.3387234,2.75940476 C41.1897207,2.9522381 41.174641,3.02930952 41.1301197,3.10638095 C41.1003191,3.19645238 41.0554388,3.20945238 40.9958378,3.20945238 C40.9660372,3.20945238 40.9064362,3.1837619 40.9064362,3.11938095 C40.9064362,3.00361905 41.174641,2.02707143 41.1897207,1.937 C41.2195213,1.87230952 41.2791223,1.73147619 41.3240027,1.73147619 C41.4134043,1.73147619 41.5476862,1.82092857 41.9052926,1.85961905 C42.2783378,1.89830952 42.7853059,1.911 42.9343085,1.911 L47.8847872,1.911 C48.3177926,1.911 48.6157979,1.88530952 48.8247606,1.85961905 C49.0186436,1.8342381 49.1378457,1.8082381 49.1974468,1.8082381 C49.2570479,1.8082381 49.2570479,1.87230952 49.2570479,1.937 C49.2570479,2.27097619 49.2125266,3.055 49.2125266,3.1837619 C49.2125266,3.27352381 49.1525665,3.32521429 49.0929654,3.32521429 C49.0333644,3.32521429 49.0035638,3.28652381 48.9888431,3.13238095 L48.9737633,3.01661905 C48.929242,2.68233333 48.6455984,2.43811905 47.393258,2.41242857 L45.7527926,2.3867381 L45.7527926,6.97604762 L45.7524335,6.97604762 Z" id="path44"></path>
                    <path d="M55.2056649,9.84316667 C56.3836835,9.84316667 58.7551596,9.30335714 58.7551596,6.14064286 C58.7551596,3.5177381 56.9060904,2.14252381 54.8329787,2.14252381 C52.6410239,2.14252381 51.0601596,3.32521429 51.0601596,5.70359524 C51.0601596,8.24880952 52.8345479,9.84316667 55.2056649,9.84316667 Z M54.9076596,1.73116667 C57.8604255,1.73116667 60.0972606,3.28652381 60.0972606,5.83204762 C60.0972606,8.27511905 57.9947074,10.2929048 54.8329787,10.2929048 C51.2389628,10.2929048 49.7029787,7.96590476 49.7029787,5.99919048 C49.7029787,4.23769048 51.2838431,1.73116667 54.9076596,1.73116667 L54.9076596,1.73116667 Z" id="path46"></path>
                    <path d="M67.7495346,6.93519048 C67.7495346,7.88233333 67.7495346,8.71340476 67.761742,8.88178571 C67.7739495,9.10278571 67.7983644,9.42902381 67.8838165,9.52342857 C68.0180984,9.69211905 68.3965293,9.88154762 69.6657447,9.88154762 C70.6545479,9.88154762 71.533484,9.59740476 72.1804787,9.07121429 C72.7416622,8.61869048 73.0231516,7.7662619 73.0231516,6.94540476 C73.0231516,5.80883333 72.4490426,5.08330952 72.0095745,4.70414286 C70.9967154,3.8207619 69.8125931,3.70469048 68.5311702,3.70469048 C68.3236436,3.70469048 67.9821941,3.73657143 67.8841755,3.76814286 C67.786516,3.79940476 67.7498936,3.8415 67.7498936,3.94704762 L67.7498936,6.93519048 L67.7495346,6.93519048 Z M66.7732979,5.967 C66.7732979,4.57816667 66.7732979,4.32528571 66.748883,4.04114286 C66.7248271,3.7362619 66.6637899,3.58830952 66.3094149,3.54652381 C66.2239628,3.53630952 66.0408511,3.52547619 65.9431915,3.52547619 C65.9062101,3.52547619 65.8573803,3.48369048 65.8573803,3.45211905 C65.8573803,3.3995 65.9065691,3.37845238 66.0286436,3.37845238 C66.5165824,3.37845238 67.212766,3.3995 67.2738032,3.3995 C67.3958777,3.3995 68.0794947,3.37845238 68.7142819,3.37845238 C69.7885372,3.37845238 71.7532181,3.2942619 73.0231516,4.3992619 C73.5602793,4.86230952 74.072992,5.60919048 74.072992,6.67178571 C74.072992,7.79814286 73.5114495,8.66109524 72.9136436,9.18666667 C72.4497606,9.59771429 71.4853723,10.218 69.6546144,10.218 C69.1907314,10.218 68.6169814,10.1867381 68.1530984,10.166 C67.6892154,10.134119 67.322992,10.113381 67.2741622,10.113381 C67.2497473,10.113381 67.0544282,10.1235952 66.8346941,10.1235952 C66.6149601,10.134119 66.3586037,10.1440238 66.1876995,10.1440238 C66.0778324,10.1440238 66.0167952,10.1235952 66.0167952,10.0709762 C66.0167952,10.0390952 66.0408511,9.99730952 66.1018883,9.99730952 C66.1995479,9.99730952 66.3338298,9.9762619 66.4314894,9.95521429 C66.639016,9.91311905 66.6634309,9.7447381 66.7119016,9.48164286 C66.7732979,9.11361905 66.7732979,8.40821429 66.7732979,7.54557143 L66.7732979,5.967 L66.7732979,5.967 Z" id="path48"></path>
                    <path d="M76.1705186,5.967 C76.1705186,4.57816667 76.1705186,4.32528571 76.1464628,4.04114286 C76.1220479,3.7362619 76.0610106,3.58830952 75.7066356,3.54652381 C75.6211835,3.53569048 75.4380718,3.52547619 75.3400532,3.52547619 C75.3034309,3.52547619 75.2549601,3.48369048 75.2549601,3.45211905 C75.2549601,3.3995 75.3037899,3.37845238 75.4258644,3.37845238 C75.9141622,3.37845238 76.6099867,3.3995 76.6710239,3.3995 C76.7442686,3.3995 78.9907979,3.40971429 79.2345878,3.3995 C79.4421144,3.38897619 79.6374335,3.35709524 79.7225266,3.34688095 C79.7717154,3.33635714 79.8201862,3.30416667 79.869016,3.30416667 C79.9059973,3.30416667 79.9178457,3.34688095 79.9178457,3.38866667 C79.9178457,3.45180952 79.8568085,3.55704762 79.8327527,3.80930952 C79.8205452,3.8935 79.7957713,4.29340476 79.7717154,4.39864286 C79.759508,4.4407381 79.7225266,4.49335714 79.6740559,4.49335714 C79.6130186,4.49335714 79.5886037,4.4512619 79.5886037,4.37759524 C79.5886037,4.31445238 79.5767553,4.16711905 79.5275665,4.06188095 C79.4546809,3.9142381 79.3444548,3.85140476 78.7584973,3.7882619 C78.5753856,3.76752381 77.3302261,3.75638095 77.2085106,3.75638095 C77.1596809,3.75638095 77.1474734,3.7882619 77.1474734,3.85140476 L77.1474734,6.28240476 C77.1474734,6.3452381 77.1474734,6.37711905 77.2085106,6.37711905 C77.3427926,6.37711905 78.7584973,6.37711905 79.0026463,6.35638095 C79.2593617,6.33471429 79.4176995,6.3245 79.5275665,6.23009524 C79.6008112,6.16664286 79.649641,6.11402381 79.6862633,6.11402381 C79.7228856,6.11402381 79.7473005,6.13507143 79.7473005,6.18769048 C79.7473005,6.24030952 79.6862633,6.38733333 79.6618484,6.68230952 C79.6377926,6.86121429 79.6130186,7.19797619 79.6130186,7.26142857 C79.6130186,7.33478571 79.5886037,7.4295 79.5157181,7.4295 C79.4665293,7.4295 79.4424734,7.39761905 79.4424734,7.34530952 C79.4424734,7.26142857 79.4424734,7.16640476 79.3932846,7.05095238 C79.3566622,6.92497619 79.2593617,6.81942857 78.8443085,6.77702381 C78.5513298,6.7457619 77.4038298,6.73492857 77.2210771,6.73492857 C77.1600399,6.73492857 77.1478324,6.76680952 77.1478324,6.79838095 L77.1478324,7.54557143 C77.1478324,7.85014286 77.135625,8.89230952 77.1478324,9.07121429 C77.1722473,9.67107143 77.3675665,9.78683333 78.4292553,9.78683333 C78.7100266,9.78683333 79.2227394,9.78683333 79.5035106,9.69211905 C79.7842819,9.58657143 79.9304122,9.42871429 79.9918085,9.07121429 C80.0158644,8.96566667 80.0402793,8.93440476 80.1016755,8.93440476 C80.1627128,8.93440476 80.1742021,9.00807143 80.1742021,9.07121429 C80.1742021,9.1337381 80.0894681,9.7447381 80.0284309,9.93354762 C79.9551862,10.165381 79.8449601,10.165381 79.430266,10.165381 C78.6245745,10.165381 78.0019947,10.1443333 77.5628856,10.1338095 C77.1108511,10.1130714 76.8304388,10.1130714 76.671742,10.1130714 C76.6476862,10.1130714 76.4398005,10.1130714 76.207859,10.1232857 C76.0006915,10.1338095 75.7561835,10.1440238 75.5856383,10.1440238 C75.4757713,10.1440238 75.4150931,10.1232857 75.4150931,10.0706667 C75.4150931,10.0387857 75.4387899,9.997 75.4998271,9.997 C75.5974867,9.997 75.7317686,9.96542857 75.8294282,9.95490476 C76.0369548,9.92302381 76.0613697,9.74442857 76.1101995,9.48133333 C76.1712367,9.11330952 76.1712367,8.40790476 76.1712367,7.54557143 L76.1712367,5.967 L76.1705186,5.967 Z" id="path50"></path>
                    <path d="M98.7851729,8.49302381 C98.8447739,8.9557619 98.9492553,9.67540476 99.5905053,9.85554762 C100.022793,9.971 100.410559,9.971 100.559561,9.971 C100.634242,9.971 100.678763,9.98430952 100.678763,10.0356905 C100.678763,10.1127619 100.54484,10.1514524 100.365678,10.1514524 C100.037513,10.1514524 98.4272074,10.1127619 97.875,10.0740714 C97.5321144,10.048381 97.4577926,10.0096905 97.4577926,9.94561905 C97.4577926,9.8942381 97.4875931,9.8682381 97.5619149,9.85554762 C97.6365957,9.84285714 97.6513165,9.62433333 97.621516,9.39280952 L96.9059441,2.75940476 L96.8610638,2.75940476 L93.2074468,9.44419048 C92.8943617,10.0096905 92.8494814,10.1257619 92.7155585,10.1257619 C92.6110771,10.1257619 92.5363963,9.997 92.2534707,9.5342619 C91.8657048,8.90438095 90.5832048,6.68045238 90.5085239,6.55169048 C90.374242,6.32016667 88.7043351,3.23483333 88.5402527,2.88754762 L88.4810106,2.88754762 L87.8842819,8.85269048 C87.8695612,9.05821429 87.8695612,9.2897381 87.8695612,9.5082619 C87.8695612,9.70109524 88.0332846,9.86792857 88.2573271,9.90661905 C88.5108112,9.95830952 88.7341356,9.97069048 88.8235372,9.97069048 C88.8831383,9.97069048 88.9427394,9.99669048 88.9427394,10.035381 C88.9427394,10.1254524 88.8533378,10.1511429 88.6745346,10.1511429 C88.1230452,10.1511429 87.4071144,10.1124524 87.2879122,10.1124524 C87.1536303,10.1124524 86.4376995,10.1511429 86.0352128,10.1511429 C85.8858511,10.1511429 85.7817287,10.1254524 85.7817287,10.035381 C85.7817287,9.99669048 85.8560505,9.97069048 85.9307314,9.97069048 C86.0499335,9.97069048 86.1544149,9.97069048 86.3780984,9.93261905 C86.8699867,9.8552381 86.914867,9.35411905 86.9744681,8.86538095 L88.0483644,0.48347619 C88.0630851,0.34202381 88.1230452,0.252261905 88.2120878,0.252261905 C88.3014894,0.252261905 88.3610904,0.303642857 88.4357713,0.444785714 L92.9992021,8.53140476 L97.3838298,0.457785714 C97.4430718,0.34202381 97.5030319,0.252261905 97.6071543,0.252261905 C97.7116356,0.252261905 97.7561569,0.35502381 97.7859574,0.599238095 L98.7851729,8.49302381 Z" id="path52"></path>
                    <path d="M103.748218,6.97604762 C103.748218,8.03028571 103.748218,8.89138095 103.807819,9.34204762 C103.852699,9.66302381 103.897221,9.86916667 104.284987,9.92054762 C104.47887,9.94592857 104.762154,9.97192857 104.881356,9.97192857 C104.956037,9.97192857 104.985838,10.023 104.985838,10.0616905 C104.985838,10.113381 104.926237,10.1520714 104.776875,10.1520714 C104.046223,10.1520714 103.19637,10.113381 103.136769,10.113381 C103.062088,10.113381 102.242035,10.1520714 101.839907,10.1520714 C101.705266,10.1520714 101.630585,10.1260714 101.630585,10.0616905 C101.630585,10.023 101.660386,9.97192857 101.735066,9.97192857 C101.854269,9.97192857 102.018351,9.94592857 102.137553,9.92054762 C102.391396,9.86916667 102.435918,9.66302381 102.480798,9.34204762 C102.540399,8.89169048 102.55512,8.03059524 102.55512,6.97604762 L102.55512,5.04802381 C102.55512,3.35121429 102.55512,3.04261905 102.525319,2.69502381 C102.495519,2.32266667 102.391396,2.15521429 102.107753,2.10383333 C101.95875,2.07814286 101.794668,2.06514286 101.705266,2.06514286 C101.645665,2.06514286 101.600785,2.0137619 101.600785,1.97569048 C101.600785,1.911 101.660386,1.88530952 101.809747,1.88530952 C102.242035,1.88530952 103.062088,1.911 103.136769,1.911 C103.19637,1.911 104.046223,1.88530952 104.449069,1.88530952 C104.598072,1.88530952 104.657673,1.911 104.657673,1.97569048 C104.657673,2.0137619 104.598072,2.06514286 104.553551,2.06514286 C104.46379,2.06514286 104.374388,2.06514286 104.225386,2.09114286 C103.86742,2.15521429 103.792739,2.30997619 103.762939,2.69502381 C103.748218,3.04230952 103.748218,3.35090476 103.748218,5.04802381 L103.748218,6.97604762 L103.748218,6.97604762 Z" id="path54"></path>
                    <path d="M108.802819,7.0017381 C108.802819,8.60878571 108.83262,9.26466667 109.071024,9.4575 C109.279987,9.63764286 109.786955,9.71502381 110.815612,9.71502381 C111.501742,9.71502381 112.083391,9.70171429 112.396476,9.3807381 C112.560559,9.21328571 112.664681,8.9817619 112.709561,8.7632381 C112.724641,8.68616667 112.769162,8.62147619 112.843843,8.62147619 C112.903444,8.62147619 112.933245,8.67285714 112.933245,8.78892857 C112.933245,8.90438095 112.843843,9.5602619 112.739362,9.88185714 C112.64996,10.1387619 112.60508,10.1774524 111.904229,10.1774524 C110.964614,10.1774524 110.234322,10.1644524 109.622872,10.1387619 C109.026503,10.1260714 108.579136,10.113381 108.19137,10.113381 C108.131769,10.113381 107.908085,10.113381 107.654601,10.1260714 C107.386037,10.1387619 107.102753,10.1520714 106.894149,10.1520714 C106.759867,10.1520714 106.685545,10.1260714 106.685545,10.0616905 C106.685545,10.023 106.714987,9.97192857 106.789668,9.97192857 C106.90887,9.97192857 107.072952,9.94592857 107.192154,9.92054762 C107.445997,9.86885714 107.475798,9.66302381 107.535399,9.34204762 C107.609721,8.89169048 107.609721,8.03059524 107.609721,6.97604762 L107.609721,5.04802381 C107.609721,3.35121429 107.609721,3.04261905 107.57992,2.69502381 C107.55012,2.32266667 107.475798,2.14252381 107.043152,2.09114286 C106.93867,2.07814286 106.714987,2.06514286 106.595785,2.06514286 C106.551263,2.06514286 106.491662,2.0137619 106.491662,1.97569048 C106.491662,1.911 106.551263,1.88530952 106.700266,1.88530952 C107.296636,1.88530952 108.116689,1.911 108.19137,1.911 C108.250971,1.911 109.235106,1.88530952 109.637952,1.88530952 C109.771875,1.88530952 109.846556,1.911 109.846556,1.97569048 C109.846556,2.0137619 109.786955,2.05245238 109.742074,2.05245238 C109.652673,2.05245238 109.45879,2.06514286 109.309787,2.07814286 C108.922021,2.14252381 108.84734,2.30966667 108.81754,2.69502381 C108.802819,3.04230952 108.802819,3.35090476 108.802819,5.04802381 L108.802819,7.0017381 Z" id="path56"></path>
                    <path d="M123.147287,6.97604762 C123.147287,8.03028571 123.162008,8.89138095 123.221609,9.34204762 C123.266489,9.66302381 123.29629,9.86916667 123.698777,9.92054762 C123.877939,9.94592857 124.175944,9.97192857 124.280426,9.97192857 C124.369827,9.97192857 124.399628,10.023 124.399628,10.0616905 C124.399628,10.113381 124.325306,10.1520714 124.175944,10.1520714 C123.460372,10.1520714 122.625239,10.113381 122.550559,10.113381 C122.490957,10.113381 121.641104,10.1520714 121.253338,10.1520714 C121.104694,10.1520714 121.044734,10.1260714 121.044734,10.0616905 C121.044734,10.023 121.074535,9.97192857 121.149215,9.97192857 C121.268418,9.97192857 121.41742,9.94592857 121.536622,9.92054762 C121.805186,9.86916667 121.849707,9.65033333 121.894588,9.32935714 C121.954189,8.879 121.954189,8.05628571 121.954189,7.0017381 L121.954189,5.90911905 C121.954189,5.85804762 121.924388,5.84535714 121.879508,5.84535714 L116.406981,5.84535714 C116.362101,5.84535714 116.332301,5.85804762 116.332301,5.90911905 L116.332301,7.0017381 C116.332301,8.05597619 116.332301,8.89138095 116.391902,9.34204762 C116.436782,9.66302381 116.481303,9.86916667 116.869069,9.92054762 C117.062952,9.94592857 117.346237,9.97192857 117.465439,9.97192857 C117.54012,9.97192857 117.56992,10.023 117.56992,10.0616905 C117.56992,10.113381 117.510319,10.1520714 117.360957,10.1520714 C116.630306,10.1520714 115.795532,10.113381 115.735572,10.113381 C115.660891,10.113381 114.826117,10.1520714 114.42363,10.1520714 C114.289348,10.1520714 114.214668,10.1260714 114.214668,10.0616905 C114.214668,10.023 114.244468,9.97192857 114.319149,9.97192857 C114.438351,9.97192857 114.602434,9.94592857 114.721636,9.92054762 C114.975479,9.86916667 115.005279,9.66302381 115.06488,9.34204762 C115.139202,8.89169048 115.139202,8.03059524 115.139202,6.97604762 L115.139202,5.04802381 C115.139202,3.35121429 115.139202,3.04261905 115.109043,2.69502381 C115.079601,2.32266667 115.005279,2.14252381 114.572633,2.09114286 C114.468152,2.07814286 114.244468,2.06514286 114.125266,2.06514286 C114.080745,2.06514286 114.021144,2.0137619 114.021144,1.97569048 C114.021144,1.911 114.080745,1.88530952 114.229747,1.88530952 C114.826117,1.88530952 115.660891,1.911 115.735572,1.911 C115.795532,1.911 116.630306,1.88530952 117.033152,1.88530952 C117.182154,1.88530952 117.241755,1.911 117.241755,1.97569048 C117.241755,2.0137619 117.182154,2.06514286 117.137633,2.06514286 C117.047872,2.06514286 116.958471,2.06514286 116.809468,2.09114286 C116.451503,2.15521429 116.376822,2.30997619 116.347021,2.69502381 C116.332301,3.04230952 116.332301,3.37659524 116.332301,5.07402381 L116.332301,5.30492857 C116.332301,5.36961905 116.362101,5.36961905 116.406981,5.36961905 L121.879508,5.36961905 C121.924388,5.36961905 121.954189,5.36961905 121.954189,5.30492857 L121.954189,5.07402381 C121.954189,3.37690476 121.939468,3.04261905 121.924388,2.69502381 C121.894588,2.32266667 121.834987,2.14252381 121.40234,2.09114286 C121.298218,2.07814286 121.074535,2.06514286 120.955332,2.06514286 C120.895372,2.06514286 120.850851,2.0137619 120.850851,1.97569048 C120.850851,1.911 120.910452,1.88530952 121.059455,1.88530952 C121.641104,1.88530952 122.490957,1.911 122.550559,1.911 C122.625239,1.911 123.460372,1.88530952 123.848138,1.88530952 C123.997141,1.88530952 124.071822,1.911 124.071822,1.97569048 C124.071822,2.0137619 124.011862,2.06514286 123.952261,2.06514286 C123.862859,2.06514286 123.788178,2.06514286 123.624455,2.09114286 C123.28121,2.15521429 123.206888,2.30997619 123.177088,2.69502381 C123.147287,3.04230952 123.147287,3.35090476 123.147287,5.04802381 L123.147287,6.97604762 L123.147287,6.97604762 Z" id="path58"></path>
                    <path d="M130.780532,6.6547619 C130.840133,6.6547619 130.840133,6.62907143 130.825053,6.57769048 L129.527832,3.58211905 C129.453152,3.41497619 129.37883,3.41497619 129.304149,3.58211905 L128.080891,6.57769048 C128.066529,6.62907143 128.080891,6.6547619 128.125771,6.6547619 L130.780532,6.6547619 Z M129.319229,2.10383333 C129.482952,1.74416667 129.542553,1.68009524 129.632314,1.68009524 C129.766237,1.68009524 129.811117,1.83392857 129.945399,2.07814286 C130.183803,2.54088095 132.286715,7.05342857 133.092048,8.71216667 C133.569215,9.68902381 133.927181,9.83047619 134.210465,9.90785714 C134.404348,9.9592381 134.598231,9.97161905 134.732154,9.97161905 C134.806835,9.97161905 134.896237,9.99730952 134.896237,10.0616905 C134.896237,10.1260714 134.747234,10.1517619 134.598231,10.1517619 C134.404348,10.1517619 133.434934,10.1517619 132.525479,10.1260714 C132.271636,10.1130714 132.063032,10.1130714 132.063032,10.0486905 C132.063032,9.99730952 132.092832,9.99730952 132.152434,9.97161905 C132.227114,9.94592857 132.361396,9.85585714 132.271995,9.67602381 L131.093976,7.16888095 C131.064176,7.1175 131.049096,7.10480952 130.974774,7.10480952 L127.946968,7.10480952 C127.887726,7.10480952 127.842846,7.1305 127.813045,7.19457143 L127.067314,8.94338095 C126.948112,9.21297619 126.873431,9.48319048 126.873431,9.67571429 C126.873431,9.8942381 127.097114,9.97130952 127.320798,9.97130952 L127.440359,9.97130952 C127.544481,9.97130952 127.574282,10.01 127.574282,10.061381 C127.574282,10.1257619 127.49996,10.1514524 127.380399,10.1514524 C127.067314,10.1514524 126.351742,10.1127619 126.202739,10.1127619 C126.068457,10.1127619 125.412128,10.1514524 124.875359,10.1514524 C124.711277,10.1514524 124.621875,10.1257619 124.621875,10.061381 C124.621875,10.01 124.681476,9.97130952 124.741077,9.97130952 C124.830838,9.97130952 125.024721,9.95892857 125.128843,9.94561905 C125.725213,9.88154762 125.979056,9.49588095 126.23254,8.94338095 L129.319229,2.10383333 Z" id="path60"></path>
                </g>
            </g>
        </g>
    </g>
</svg>